<mxfile host="app.diagrams.net" modified="2022-11-07T04:58:12.470Z" agent="5.0 (Windows NT 10.0; Win64; x64) AppleWebKit/537.36 (KHTML, like Gecko) Chrome/107.0.0.0 Safari/537.36" etag="pYg8j5ZbH6TSDnBwSioJ" version="20.5.2" type="github">
  <diagram id="kgpKYQtTHZ0yAKxKKP6v" name="Page-1">
    <mxGraphModel dx="865" dy="483" grid="1" gridSize="10" guides="1" tooltips="1" connect="1" arrows="1" fold="1" page="1" pageScale="1" pageWidth="850" pageHeight="1100" math="0" shadow="0">
      <root>
        <mxCell id="0" />
        <mxCell id="1" parent="0" />
        <mxCell id="wCUNzZF6uMXQBu01_MHd-8" value="" style="rounded=0;whiteSpace=wrap;html=1;" vertex="1" parent="1">
          <mxGeometry x="330" y="150" width="280" height="610" as="geometry" />
        </mxCell>
        <mxCell id="wCUNzZF6uMXQBu01_MHd-9" value="Home" style="ellipse;whiteSpace=wrap;html=1;fillColor=#d5e8d4;strokeColor=#82b366;" vertex="1" parent="1">
          <mxGeometry x="350" y="190" width="90" height="60" as="geometry" />
        </mxCell>
        <mxCell id="wCUNzZF6uMXQBu01_MHd-10" value="Borrwoser&lt;br&gt;" style="shape=umlActor;verticalLabelPosition=bottom;verticalAlign=top;html=1;outlineConnect=0;" vertex="1" parent="1">
          <mxGeometry x="240" y="390" width="30" height="60" as="geometry" />
        </mxCell>
        <mxCell id="wCUNzZF6uMXQBu01_MHd-13" value="Librarian" style="shape=umlActor;verticalLabelPosition=bottom;verticalAlign=top;html=1;outlineConnect=0;" vertex="1" parent="1">
          <mxGeometry x="680" y="330" width="30" height="60" as="geometry" />
        </mxCell>
        <mxCell id="wCUNzZF6uMXQBu01_MHd-15" value="&lt;h1&gt;Library System&lt;/h1&gt;" style="text;html=1;strokeColor=none;fillColor=none;spacing=5;spacingTop=-20;whiteSpace=wrap;overflow=hidden;rounded=0;" vertex="1" parent="1">
          <mxGeometry x="380" y="70" width="190" height="120" as="geometry" />
        </mxCell>
        <mxCell id="wCUNzZF6uMXQBu01_MHd-16" value="View Books" style="ellipse;whiteSpace=wrap;html=1;fillColor=#d5e8d4;strokeColor=#82b366;" vertex="1" parent="1">
          <mxGeometry x="350" y="270" width="90" height="60" as="geometry" />
        </mxCell>
        <mxCell id="wCUNzZF6uMXQBu01_MHd-19" value="View Author" style="ellipse;whiteSpace=wrap;html=1;fillColor=#d5e8d4;strokeColor=#82b366;" vertex="1" parent="1">
          <mxGeometry x="350" y="360" width="90" height="60" as="geometry" />
        </mxCell>
        <mxCell id="wCUNzZF6uMXQBu01_MHd-20" value="View My Borrowed" style="ellipse;whiteSpace=wrap;html=1;" vertex="1" parent="1">
          <mxGeometry x="350" y="470" width="90" height="65" as="geometry" />
        </mxCell>
        <mxCell id="wCUNzZF6uMXQBu01_MHd-21" value="View All Borrowed" style="ellipse;whiteSpace=wrap;html=1;" vertex="1" parent="1">
          <mxGeometry x="350" y="570" width="90" height="65" as="geometry" />
        </mxCell>
        <mxCell id="wCUNzZF6uMXQBu01_MHd-23" value="General User&lt;br&gt;" style="shape=umlActor;verticalLabelPosition=bottom;verticalAlign=top;html=1;outlineConnect=0;" vertex="1" parent="1">
          <mxGeometry x="240" y="280" width="30" height="60" as="geometry" />
        </mxCell>
      </root>
    </mxGraphModel>
  </diagram>
</mxfile>
